<svg width="329" height="49" viewBox="0 0 329 49" fill="none" xmlns="http://www.w3.org/2000/svg">
<path d="M50.896 18.368C50.2133 20.8427 48.9333 22.784 47.056 24.192C45.1787 25.5573 42.8107 26.4107 39.952 26.752C42 26.9227 43.536 27.52 44.56 28.544C45.584 29.568 46.096 30.912 46.096 32.576C46.096 33.216 45.9893 34.0053 45.776 34.944L45.072 38.08C44.9867 38.5067 44.944 38.8053 44.944 38.976C44.944 39.5307 45.072 39.9573 45.328 40.256C45.584 40.512 45.9467 40.64 46.416 40.64C47.312 40.64 47.952 40.768 48.336 41.024C48.7627 41.28 48.912 41.7493 48.784 42.432C48.6133 43.4133 48.1013 44.3733 47.248 45.312C46.3947 46.2507 45.1787 47.04 43.6 47.68C42.064 48.2773 40.1867 48.576 37.968 48.576C35.152 48.576 32.912 47.9573 31.248 46.72C29.584 45.44 28.752 43.6267 28.752 41.28C28.752 40.384 28.88 39.424 29.136 38.4L30.16 34.304C30.3307 33.7493 30.416 33.1733 30.416 32.576C30.416 31.5947 30.0747 30.8907 29.392 30.464C28.752 30.0373 27.7067 29.824 26.256 29.824H23.824L20.88 40.448C20.7947 40.704 20.752 41.024 20.752 41.408C20.752 42.0053 20.9013 42.5173 21.2 42.944C21.4987 43.3707 21.904 43.8187 22.416 44.288C22.8 44.5867 23.0987 44.8853 23.312 45.184C23.5253 45.44 23.632 45.7173 23.632 46.016C23.632 46.7413 23.2907 47.2533 22.608 47.552C21.9253 47.8507 20.9227 48 19.6 48H3.536C2.42667 48 1.59467 47.808 1.04 47.424C0.485333 46.9973 0.293333 46.4213 0.464 45.696C0.549333 45.312 0.72 45.0133 0.976 44.8C1.18933 44.544 1.53067 44.2667 2 43.968C2.72533 43.5413 3.30133 43.0933 3.728 42.624C4.15467 42.1547 4.496 41.4293 4.752 40.448L12.56 12.864C12.7307 12.3093 12.816 11.776 12.816 11.264C12.816 10.7947 12.7307 10.4107 12.56 10.112C12.432 9.77067 12.24 9.38667 11.984 8.96C11.6 8.40533 11.408 7.95733 11.408 7.616C11.408 7.488 11.4507 7.25333 11.536 6.912C11.7067 6.35733 12.0693 5.97333 12.624 5.76C13.2213 5.504 14.1173 5.376 15.312 5.376H36.752C39.696 5.376 42.256 5.824 44.432 6.72C46.6507 7.616 48.336 8.85333 49.488 10.432C50.6827 11.968 51.28 13.7173 51.28 15.68C51.28 16.576 51.152 17.472 50.896 18.368ZM34.512 17.728C34.7253 16.7467 34.832 16 34.832 15.488C34.832 13.2267 33.5947 12.096 31.12 12.096H28.432L25.616 23.424H28.304C29.968 23.424 31.2693 23.0187 32.208 22.208C33.1893 21.3973 33.9573 19.904 34.512 17.728ZM71.5545 13.824C76.9732 13.824 80.8985 14.6987 83.3305 16.448C85.7625 18.1547 86.9785 20.352 86.9785 23.04C86.9785 23.8507 86.8932 24.5973 86.7225 25.28C86.0825 28.096 84.2905 30.1227 81.3465 31.36C78.4452 32.5547 75.0105 33.152 71.0425 33.152C69.0372 33.152 67.1598 33.024 65.4105 32.768C65.3678 34.9867 65.9652 36.544 67.2025 37.44C68.4398 38.336 70.1678 38.784 72.3865 38.784C73.4105 38.784 74.3918 38.6773 75.3305 38.464C76.2692 38.208 77.4638 37.8453 78.9145 37.376C80.1092 36.9493 80.9198 36.736 81.3465 36.736C81.8158 36.736 82.0505 37.0133 82.0505 37.568C82.0932 39.0613 81.5385 40.64 80.3865 42.304C79.2345 43.9253 77.5278 45.312 75.2665 46.464C73.0052 47.616 70.2745 48.192 67.0745 48.192C62.3385 48.192 58.4558 46.9973 55.4265 44.608C52.3972 42.2187 50.8825 38.7413 50.8825 34.176C50.8825 32.896 51.0532 31.4027 51.3945 29.696C52.4612 24.448 54.7865 20.5013 58.3705 17.856C61.9972 15.168 66.3918 13.824 71.5545 13.824ZM65.8585 28.928C66.0292 28.9707 66.2638 28.992 66.5625 28.992C68.3545 28.992 69.7198 28.16 70.6585 26.496C71.5972 24.832 72.0452 22.976 72.0025 20.928C71.9598 19.7333 71.6185 19.136 70.9785 19.136C70.5092 19.136 69.9545 19.52 69.3145 20.288C68.6745 21.0133 68.0345 22.1227 67.3945 23.616C66.7972 25.1093 66.2852 26.88 65.8585 28.928ZM120.743 38.784C120.658 39.1253 120.615 39.36 120.615 39.488C120.615 39.7867 120.7 40.0213 120.871 40.192C121.042 40.3627 121.255 40.448 121.511 40.448C122.023 40.448 122.45 40.2347 122.791 39.808C123.175 39.3387 123.431 39.104 123.559 39.104C123.772 39.104 123.943 39.2533 124.071 39.552C124.199 39.8507 124.263 40.192 124.263 40.576C124.306 41.728 123.858 42.9013 122.919 44.096C122.023 45.2907 120.807 46.272 119.271 47.04C117.735 47.808 116.071 48.192 114.279 48.192C112.146 48.192 110.29 47.7867 108.711 46.976C107.132 46.1653 106.044 45.0987 105.447 43.776C104.295 45.2693 102.972 46.3787 101.479 47.104C99.9857 47.8293 98.407 48.192 96.743 48.192C94.7803 48.192 92.9457 47.7013 91.239 46.72C89.575 45.7387 88.231 44.352 87.207 42.56C86.2257 40.7253 85.735 38.656 85.735 36.352C85.735 32.4693 86.4603 28.8213 87.911 25.408C89.4043 21.952 91.4737 19.1787 94.119 17.088C96.7643 14.9547 99.7723 13.888 103.143 13.888C104.978 13.888 106.535 14.1013 107.815 14.528C109.138 14.9547 110.332 15.5947 111.399 16.448L113.575 9.28C113.703 8.896 113.767 8.576 113.767 8.32C113.767 7.85066 113.639 7.46666 113.383 7.168C113.17 6.86933 112.871 6.57066 112.487 6.272C112.06 5.93067 111.74 5.632 111.527 5.376C111.356 5.12 111.335 4.77866 111.463 4.352C111.719 3.37066 113.063 2.51733 115.495 1.792C117.927 1.06666 120.466 0.703999 123.111 0.703999C125.586 0.703999 127.399 1.17333 128.551 2.112C129.746 3.05066 130.343 4.33066 130.343 5.952C130.343 6.89066 130.194 7.808 129.895 8.704L120.743 38.784ZM110.055 20.8C109.372 20.2027 108.626 19.904 107.815 19.904C106.578 19.904 105.362 20.8213 104.167 22.656C102.972 24.4907 102.012 26.7093 101.287 29.312C100.562 31.9147 100.22 34.2613 100.263 36.352C100.263 38.6987 101.031 39.872 102.567 39.872C103.122 39.872 103.591 39.6587 103.975 39.232C104.359 38.7627 104.722 38.016 105.063 36.992L110.055 20.8ZM143.033 14.144C145.507 14.144 147.321 14.6133 148.473 15.552C149.625 16.4907 150.201 17.7707 150.201 19.392C150.201 20.3733 150.051 21.312 149.753 22.208L143.865 41.344C143.737 41.856 143.673 42.304 143.673 42.688C143.673 43.2427 143.779 43.6907 143.993 44.032C144.206 44.3307 144.505 44.6293 144.889 44.928C145.187 45.2267 145.401 45.4827 145.529 45.696C145.657 45.8667 145.678 46.1013 145.593 46.4C145.379 46.9547 144.953 47.36 144.313 47.616C143.673 47.872 142.691 48 141.369 48H126.777C125.667 48 124.857 47.8293 124.345 47.488C123.833 47.104 123.662 46.6133 123.833 46.016C124.003 45.504 124.451 45.056 125.177 44.672C125.817 44.3307 126.35 43.9253 126.777 43.456C127.203 42.9867 127.566 42.24 127.865 41.216L133.433 22.72C133.561 22.336 133.625 22.016 133.625 21.76C133.625 21.2907 133.518 20.928 133.305 20.672C133.091 20.3733 132.771 20.0747 132.345 19.776C131.918 19.4347 131.619 19.136 131.449 18.88C131.278 18.624 131.257 18.2827 131.385 17.856C131.641 16.8747 132.985 16.0213 135.417 15.296C137.849 14.528 140.387 14.144 143.033 14.144ZM147.321 -3.8147e-06C148.985 -3.8147e-06 150.371 0.554663 151.481 1.664C152.59 2.73066 153.145 4.05333 153.145 5.632C153.145 6.74133 152.846 7.82933 152.249 8.896C151.694 9.96267 150.883 10.8373 149.817 11.52C148.793 12.16 147.641 12.48 146.361 12.48C144.739 12.48 143.374 11.9467 142.265 10.88C141.198 9.77067 140.643 8.40533 140.601 6.784C140.601 5.71733 140.878 4.672 141.433 3.648C141.987 2.58133 142.777 1.70666 143.801 1.024C144.825 0.34133 145.998 -3.8147e-06 147.321 -3.8147e-06ZM180.166 14.144C182.427 14.144 184.305 14.9547 185.798 16.576C187.291 18.1973 188.038 20.416 188.038 23.232C188.038 27.0293 186.715 30.912 184.07 34.88C181.425 38.848 178.075 42.1333 174.022 44.736C169.969 47.296 166.022 48.576 162.182 48.576C158.513 48.576 155.526 47.8293 153.222 46.336C150.961 44.8427 149.83 42.7093 149.83 39.936C149.83 38.912 150.022 37.76 150.406 36.48L154.438 22.72C154.523 22.3787 154.566 22.1227 154.566 21.952C154.566 21.5253 154.459 21.1627 154.246 20.864C154.033 20.5653 153.734 20.2453 153.35 19.904C152.71 19.3493 152.39 18.8587 152.39 18.432C152.347 17.8347 152.71 17.1947 153.478 16.512C154.246 15.8293 155.313 15.2747 156.678 14.848C158.086 14.3787 159.665 14.144 161.414 14.144C164.273 14.144 166.491 14.848 168.07 16.256C169.691 17.6213 170.502 19.4133 170.502 21.632C170.502 22.6133 170.331 23.68 169.99 24.832L165.83 38.528C165.702 38.912 165.638 39.232 165.638 39.488C165.638 40.0427 165.83 40.4693 166.214 40.768C166.598 41.0667 167.131 41.216 167.814 41.216C168.753 41.216 169.841 40.8107 171.078 40C172.358 39.1467 173.617 37.952 174.854 36.416C176.091 34.8373 177.094 32.9813 177.862 30.848C176.155 29.3547 174.939 27.8827 174.214 26.432C173.531 24.9813 173.19 23.488 173.19 21.952C173.19 19.776 173.787 17.9413 174.982 16.448C176.177 14.912 177.905 14.144 180.166 14.144ZM203.374 14.144C205.849 14.144 207.662 14.6133 208.814 15.552C209.966 16.4907 210.542 17.7707 210.542 19.392C210.542 20.3733 210.393 21.312 210.094 22.208L204.206 41.344C204.078 41.856 204.014 42.304 204.014 42.688C204.014 43.2427 204.121 43.6907 204.334 44.032C204.548 44.3307 204.846 44.6293 205.23 44.928C205.529 45.2267 205.742 45.4827 205.87 45.696C205.998 45.8667 206.02 46.1013 205.934 46.4C205.721 46.9547 205.294 47.36 204.654 47.616C204.014 47.872 203.033 48 201.71 48H187.118C186.009 48 185.198 47.8293 184.686 47.488C184.174 47.104 184.004 46.6133 184.174 46.016C184.345 45.504 184.793 45.056 185.518 44.672C186.158 44.3307 186.692 43.9253 187.118 43.456C187.545 42.9867 187.908 42.24 188.206 41.216L193.774 22.72C193.902 22.336 193.966 22.016 193.966 21.76C193.966 21.2907 193.86 20.928 193.646 20.672C193.433 20.3733 193.113 20.0747 192.686 19.776C192.26 19.4347 191.961 19.136 191.79 18.88C191.62 18.624 191.598 18.2827 191.726 17.856C191.982 16.8747 193.326 16.0213 195.758 15.296C198.19 14.528 200.729 14.144 203.374 14.144ZM207.662 -3.8147e-06C209.326 -3.8147e-06 210.713 0.554663 211.822 1.664C212.932 2.73066 213.486 4.05333 213.486 5.632C213.486 6.74133 213.188 7.82933 212.59 8.896C212.036 9.96267 211.225 10.8373 210.158 11.52C209.134 12.16 207.982 12.48 206.702 12.48C205.081 12.48 203.716 11.9467 202.606 10.88C201.54 9.77067 200.985 8.40533 200.942 6.784C200.942 5.71733 201.22 4.672 201.774 3.648C202.329 2.58133 203.118 1.70666 204.142 1.024C205.166 0.34133 206.34 -3.8147e-06 207.662 -3.8147e-06ZM240.508 14.144C242.769 14.144 244.647 14.9547 246.14 16.576C247.633 18.1973 248.38 20.416 248.38 23.232C248.38 27.0293 247.057 30.912 244.412 34.88C241.767 38.848 238.417 42.1333 234.364 44.736C230.311 47.296 226.364 48.576 222.524 48.576C218.855 48.576 215.868 47.8293 213.564 46.336C211.303 44.8427 210.172 42.7093 210.172 39.936C210.172 38.912 210.364 37.76 210.748 36.48L214.78 22.72C214.865 22.3787 214.908 22.1227 214.908 21.952C214.908 21.5253 214.801 21.1627 214.588 20.864C214.375 20.5653 214.076 20.2453 213.692 19.904C213.052 19.3493 212.732 18.8587 212.732 18.432C212.689 17.8347 213.052 17.1947 213.82 16.512C214.588 15.8293 215.655 15.2747 217.02 14.848C218.428 14.3787 220.007 14.144 221.756 14.144C224.615 14.144 226.833 14.848 228.412 16.256C230.033 17.6213 230.844 19.4133 230.844 21.632C230.844 22.6133 230.673 23.68 230.332 24.832L226.172 38.528C226.044 38.912 225.98 39.232 225.98 39.488C225.98 40.0427 226.172 40.4693 226.556 40.768C226.94 41.0667 227.473 41.216 228.156 41.216C229.095 41.216 230.183 40.8107 231.42 40C232.7 39.1467 233.959 37.952 235.196 36.416C236.433 34.8373 237.436 32.9813 238.204 30.848C236.497 29.3547 235.281 27.8827 234.556 26.432C233.873 24.9813 233.532 23.488 233.532 21.952C233.532 19.776 234.129 17.9413 235.324 16.448C236.519 14.912 238.247 14.144 240.508 14.144ZM284.901 39.168C284.815 39.5093 284.773 39.7653 284.773 39.936C284.773 40.2347 284.837 40.4693 284.965 40.64C285.135 40.8107 285.349 40.896 285.605 40.896C286.117 40.896 286.543 40.6827 286.885 40.256C287.269 39.7867 287.525 39.552 287.653 39.552C287.866 39.552 288.037 39.7013 288.165 40C288.335 40.256 288.421 40.576 288.421 40.96C288.463 42.1547 288.037 43.3493 287.141 44.544C286.245 45.696 284.986 46.656 283.365 47.424C281.743 48.192 279.93 48.576 277.925 48.576C275.407 48.576 273.402 48.064 271.909 47.04C270.415 46.016 269.455 44.672 269.029 43.008C267.493 44.7147 265.786 46.016 263.909 46.912C262.074 47.7653 260.197 48.192 258.277 48.192C255.29 48.192 252.773 47.4667 250.725 46.016C248.719 44.5227 247.717 42.4533 247.717 39.808C247.717 38.6133 247.93 37.376 248.357 36.096L252.453 22.72C252.581 22.336 252.645 22.016 252.645 21.76C252.645 21.2907 252.538 20.928 252.325 20.672C252.111 20.3733 251.791 20.0747 251.365 19.776C250.938 19.4347 250.639 19.136 250.469 18.88C250.298 18.624 250.277 18.2827 250.405 17.856C250.661 16.8747 252.005 16.0213 254.437 15.296C256.869 14.528 259.407 14.144 262.053 14.144C264.527 14.144 266.341 14.6133 267.493 15.552C268.645 16.4907 269.221 17.7707 269.221 19.392C269.221 20.3733 269.071 21.312 268.773 22.208L264.741 35.52C264.57 35.9893 264.485 36.4373 264.485 36.864C264.485 37.4613 264.655 37.9093 264.997 38.208C265.338 38.5067 265.786 38.656 266.341 38.656C267.151 38.656 267.813 38.4213 268.325 37.952C268.837 37.4827 269.349 36.6933 269.861 35.584L273.765 22.72C273.893 22.336 273.957 22.016 273.957 21.76C273.957 21.2907 273.85 20.928 273.637 20.672C273.423 20.3733 273.125 20.0747 272.741 19.776C272.314 19.4347 272.015 19.136 271.845 18.88C271.674 18.624 271.653 18.2827 271.781 17.856C271.994 16.8747 273.317 16.0213 275.749 15.296C278.181 14.528 280.719 14.144 283.365 14.144C285.839 14.144 287.653 14.6133 288.805 15.552C289.999 16.4907 290.597 17.7493 290.597 19.328C290.597 20.1387 290.426 21.0987 290.085 22.208L284.901 39.168ZM311.112 13.568C314.653 13.568 317.704 13.888 320.264 14.528C322.866 15.168 324.85 16.064 326.216 17.216C327.624 18.368 328.328 19.6693 328.328 21.12C328.328 22.6133 327.73 23.8293 326.536 24.768C325.384 25.7067 323.762 26.176 321.672 26.176C319.538 26.176 317.725 25.6427 316.232 24.576C314.781 23.5093 314.056 22.1653 314.056 20.544C314.056 19.9893 314.141 19.456 314.312 18.944C313.544 18.7307 312.861 18.624 312.264 18.624C311.197 18.624 310.301 18.88 309.576 19.392C308.893 19.904 308.573 20.6293 308.616 21.568C308.616 22.6773 309.17 23.616 310.28 24.384C311.389 25.152 313.181 26.112 315.656 27.264C317.789 28.2027 319.538 29.0773 320.904 29.888C322.312 30.656 323.485 31.6373 324.424 32.832C325.405 34.0267 325.896 35.4347 325.896 37.056C325.896 37.3973 325.81 38.0373 325.64 38.976C324.957 41.8347 323.058 44.096 319.944 45.76C316.829 47.424 312.733 48.256 307.656 48.256C301.938 48.256 297.394 47.488 294.024 45.952C290.696 44.416 289.032 42.304 289.032 39.616C289.032 37.7813 289.586 36.3947 290.696 35.456C291.805 34.5173 293.277 34.048 295.112 34.048C297.245 34.048 299.058 34.7093 300.552 36.032C302.088 37.3547 302.856 39.04 302.856 41.088C302.856 41.6427 302.792 42.2187 302.664 42.816C303.688 43.072 304.669 43.2 305.608 43.2C306.717 43.2 307.634 42.9013 308.36 42.304C309.085 41.7067 309.448 40.8747 309.448 39.808C309.405 38.8267 308.914 37.9947 307.976 37.312C307.037 36.5867 305.544 35.7333 303.496 34.752C301.576 33.856 299.997 33.024 298.76 32.256C297.522 31.4453 296.456 30.4427 295.56 29.248C294.706 28.0533 294.28 26.6453 294.28 25.024C294.28 21.5253 295.73 18.752 298.632 16.704C301.576 14.6133 305.736 13.568 311.112 13.568Z" fill="#0E5A4C" fill-opacity="0.8"/>
</svg>
